<?xml version="1.0" encoding="UTF-8" standalone="no"?>
<svg
   xmlns:dc="http://purl.org/dc/elements/1.1/"
   xmlns:cc="http://creativecommons.org/ns#"
   xmlns:rdf="http://www.w3.org/1999/02/22-rdf-syntax-ns#"
   xmlns:svg="http://www.w3.org/2000/svg"
   xmlns="http://www.w3.org/2000/svg"
   xmlns:sodipodi="http://sodipodi.sourceforge.net/DTD/sodipodi-0.dtd"
   xmlns:inkscape="http://www.inkscape.org/namespaces/inkscape"
   sodipodi:docname="logo.svg"
   inkscape:version="1.0 (4035a4fb49, 2020-05-01)"
   id="svg8"
   version="1.1"
   viewBox="0 0 157.86734 170.14709"
   height="170.14709mm"
   width="157.86734mm">
  <defs
     id="defs2" />
  <sodipodi:namedview
     inkscape:window-maximized="0"
     inkscape:window-y="0"
     inkscape:window-x="1998"
     inkscape:window-height="1041"
     inkscape:window-width="1274"
     fit-margin-bottom="0"
     fit-margin-right="0"
     fit-margin-left="0"
     fit-margin-top="0"
     showgrid="false"
     inkscape:document-rotation="0"
     inkscape:current-layer="layer1"
     inkscape:document-units="mm"
     inkscape:cy="375.52327"
     inkscape:cx="288.08753"
     inkscape:zoom="0.7"
     inkscape:pageshadow="2"
     inkscape:pageopacity="0.0"
     borderopacity="1.0"
     bordercolor="#666666"
     pagecolor="#ffffff"
     id="base" />
  <metadata
     id="metadata5">
    <rdf:RDF>
      <cc:Work
         rdf:about="">
        <dc:format>image/svg+xml</dc:format>
        <dc:type
           rdf:resource="http://purl.org/dc/dcmitype/StillImage" />
        <dc:title></dc:title>
      </cc:Work>
    </rdf:RDF>
  </metadata>
  <g
     transform="translate(-275.9745,177.59616)"
     id="layer1"
     inkscape:groupmode="layer"
     inkscape:label="Layer 1">
    <g
       transform="translate(-60.452,-177.03383)"
       id="g847">
      <path
         sodipodi:nodetypes="cssccssscsscsssccssscccscc"
         id="path1031"
         d="m 485.90503,110.98691 c -3.34987,-0.20163 -13.01826,-1.29492 -15.113,-1.70895 -2.32374,-0.45931 -6.39511,-1.61723 -8.63187,-2.91055 -0.5145,-0.2975 -0.95601,-0.55779 -0.98112,-0.57844 -14.11099,-9.901633 -19.99417,-18.404843 -30.9035,-36.804643 -0.0798,-0.0851 0.21198,-2.099891 -0.57655,-3.252421 -4.96268,-7.25346 -8.59292,-11.6649 -13.84892,-16.8291 -5.08572,-4.99689 -10.4889,-9.15036 -16.43204,-12.63145 -3.90676,-2.28831 -9.84802,-5.00969 -14.2875,-6.544349 -4.63093,-1.601182 -10.54123,-2.969902 -15.5575,-3.603181 -4.22102,-0.532883 -5.23179,-0.587755 -10.82677,-0.587755 h -5.49276 l 1e-5,-0.481604 c 10e-6,-0.264883 0.0909,-0.922108 0.20196,-1.4605 1.00023,-4.848616 4.45118,-8.558535 9.25956,-9.954425 l 1.016,-0.294949 c 37.40779,-0.134581 77.5503,-0.128848 110.17665,-0.12752 l 3.35284,0.07875 c 1.97058,0.04628 2.45618,0.126679 3.43751,0.417598 4.46452,1.323528 7.68494,4.620233 8.996,9.20911 l 0.275,0.962541 0.033,43.592744 0.033,43.592754 -1.74752,-0.0229 c -0.96113,-0.0126 -2.03326,-0.0401 -2.38251,-0.0611 z"
         style="fill:#c9618c;stroke-width:0.127" />
      <path
         id="path861"
         d="m 440.24853,51.374636 c -13.5279,-1.07331 -24.99518,-7.68868 -29.59929,-17.07557 -4.41306,-8.997347 -1.79517,-19.059347 6.79753,-26.1266792 6.88007,-5.6587307 16.16479,-8.73427443 26.36911,-8.73471443 13.72513,-5.8e-4 25.96047,5.72491763 31.89809,14.92663663 1.30098,2.016177 2.49105,4.864461 2.94322,7.044262 1.01601,4.897909 0.10535,10.08526 -2.54875,14.518275 -1.37018,2.28854 -3.9585,5.22313 -6.20352,7.03341 -5.5525,4.47728 -13.12705,7.43858 -21.21089,8.29246 -1.78768,0.18883 -6.70707,0.25985 -8.4455,0.12192 z"
         style="fill:#7f3ebe;stroke-width:0.127" />
      <path
         sodipodi:nodetypes="ssssssssccsss"
         id="path853"
         d="m 461.16842,105.09594 c -5.28543,-3.46984 -10.94249,-9.499124 -17.62786,-18.787774 -2.53206,-3.51804 -13.23117,-17.629258 -13.07964,-17.715108 0.2976,-0.16862 4.04836,-1.484922 5.21561,-1.779832 3.2906,-0.83138 6.20979,-1.20866 9.35202,-1.20866 5.01945,0 9.00175,0.86805 12.82931,2.79649 2.22449,1.12076 3.8214,2.25873 5.43742,3.87476 2.776,2.77599 4.54052,6.06797 5.42689,10.12463 0.25015,1.14485 0.28458,1.66875 0.2859,4.34962 0.001,2.62324 -0.0377,3.25359 -0.28003,4.52319 -0.83339,4.3668 -2.59857,8.56708 -5.31209,12.640194 -0.66801,1.00272 -1.22742,1.82312 -1.24313,1.82312 -0.0157,0 -0.46768,-0.28828 -1.0044,-0.64063 z"
         style="fill:#7f3ebe;stroke-width:0.127" />
      <path
         sodipodi:nodetypes="cssccssssscsssccscsssscccsccccc"
         id="path851"
         d="m 364.49303,149.92193 c -2.85206,-0.33586 -5.71985,-1.79616 -7.74661,-3.94463 -1.51126,-1.60202 -2.48025,-3.34538 -3.09491,-5.56826 l -0.33402,-1.20797 -0.0643,-90.457874 0.28575,-0.0854 c 0.57976,-0.17332 7.69451,-0.636474 9.62357,-0.485304 7.79992,0.61121 14.79711,2.479417 21.34927,5.709827 6.31215,3.11209 11.28884,6.715265 16.50704,12.034505 3.7585,3.83126 6.33226,6.396954 10.35857,13.447368 l 1.02674,1.797904 -1.0751,1.3335 c -3.75482,4.6573 -6.29332,9.89095 -7.36114,15.1765 -0.33232,1.64495 -0.3592,1.99659 -0.3592,4.699004 0,3.34438 0.1577,4.49229 0.95125,6.92413 4.26783,13.38026 22.07271,15.65294 32.24411,13.25981 1.80869,-0.44924 4.56304,-1.34872 5.79921,-1.89383 l 0.64056,-0.28247 0.43894,0.37009 c 1.55153,1.30821 5.11067,3.80651 7.21677,5.06574 5.39289,3.22439 11.43877,5.44162 17.41566,6.38689 1.37499,0.21746 9.11422,1.11899 12.065,1.40541 2.83451,0.27514 5.896,0.44947 7.90575,0.45015 h 1.74625 l -0.001,1.93675 c 0,1.06521 -0.0836,2.47968 -0.18485,3.14325 -0.87554,5.7379 -5.36692,10.06873 -11.1809,10.78121 l -111.99209,0.14044 -0.64608,-0.0165 c -0.35534,-0.009 -1.04613,-0.0636 -1.53508,-0.12117 z"
         style="fill:#3f3f3f;stroke-width:0.127" />
      <path
         id="path849"
         d="m 484.12703,133.91696 c -3.00396,-0.18877 -13.04944,-1.27869 -15.8115,-1.71553 -4.01288,-0.63466 -8.12437,-1.85989 -12.01588,-3.58075 -1.37943,-0.60999 -3.22412,-1.52878 -3.22412,-1.60581 0,-0.0302 0.41434,0.11789 0.92075,0.32907 0.50641,0.21117 1.18523,0.49009 1.50849,0.61982 l 0.58775,0.23589 1.36829,-3.30695 1.3683,-3.30694 0.28556,0.70189 c 0.6075,1.49319 1.39801,2.31221 2.93377,3.03958 0.8089,0.3831 0.96266,0.41184 2.20309,0.41184 1.28097,0 1.37312,-0.0189 2.33965,-0.48039 2.42295,-1.15685 4.33679,-4.23522 4.59662,-7.3936 0.0889,-1.08013 -0.18214,-2.48458 -0.67301,-3.48788 -1.22618,-2.50622 -4.63453,-3.64855 -7.19502,-2.41146 -0.28012,0.13535 -0.52292,0.23219 -0.53953,0.21521 -0.0166,-0.017 0.10882,-0.37222 0.27876,-0.78941 0.16995,-0.4172 0.28527,-0.82039 0.25626,-0.89598 -0.0807,-0.21042 -3.89414,-1.7575 -4.01983,-1.63083 -0.0602,0.0607 -1.66143,3.85367 -3.55824,8.42884 -1.89682,4.57518 -3.52649,8.5056 -3.62149,8.73428 l -0.17274,0.41578 -1.46653,-0.89775 c -7.11233,-4.35389 -13.61479,-10.40457 -20.53773,-19.11081 -3.6437,-4.58229 -6.32624,-8.386314 -12.99632,-18.429654 -9.27594,-13.96707 -11.38289,-16.79259 -16.12236,-21.6209 -11.62652,-11.84446 -25.8245,-17.92492 -41.85149,-17.9234 -2.5954,2.5e-4 -6.86386,0.23517 -8.22325,0.45259 -0.4729,0.0756 -0.54048,0.0568 -0.54567,-0.15215 -0.003,-0.13117 -0.68173,-5.23911 -1.50772,-11.35099 -0.82598,-6.11187 -1.49337,-11.123483 -1.48308,-11.136913 0.0504,-0.06569 3.48365,-0.428219 5.85422,-0.618152 2.12015,-0.169871 3.59144,-0.199263 7.1755,-0.143348 4.54997,0.07098 5.46615,0.130879 9.271,0.606104 8.67382,1.083358 17.18559,3.664757 25.146,7.626139 8.08361,4.02269 14.70067,8.7672 21.31707,15.28458 6.01052,5.92059 9.70987,10.5972 16.62795,21.02059 8.73469,13.16048 10.48725,15.72828 13.21855,19.3675 8.07526,10.759564 14.9076,16.634644 22.22211,19.108664 1.94761,0.65875 3.34579,0.92397 7.32282,1.38906 9.51244,1.11244 9.20182,1.09228 16.8317,1.09228 0.0217,0 2.11754,22.74049 2.09797,22.76376 -0.0142,0.0169 -0.9645,0.0878 -2.11176,0.15761 -2.38012,0.14476 -5.64272,0.14011 -8.05491,-0.0114 z m -2.2225,-5.64591 c 1.64299,-0.43056 2.70548,-1.16737 3.26833,-2.26654 0.43123,-0.84212 0.54036,-2.37156 0.24237,-3.39665 -0.5506,-1.89396 -1.89476,-2.6102 -5.79244,-3.08651 -1.65685,-0.20248 -2.50225,-0.43461 -2.69661,-0.74045 -0.13716,-0.21583 -0.12517,-0.82508 0.0216,-1.0994 0.23731,-0.44342 1.10937,-0.67218 2.54371,-0.66727 1.48682,0.005 2.21355,0.12176 3.84263,0.6169 0.61167,0.18591 1.13613,0.31402 1.16545,0.2847 0.0293,-0.0293 0.0146,-0.79517 -0.0326,-1.70187 l -0.0859,-1.64854 -1.143,-0.22864 c -1.68931,-0.33792 -5.04871,-0.43015 -6.39039,-0.17545 -1.93753,0.36781 -3.04651,1.077 -3.66687,2.34496 -0.30803,0.62959 -0.3511,0.86258 -0.34516,1.86736 0.006,0.94921 0.0622,1.2685 0.32696,1.84372 0.73672,1.60081 1.95944,2.20057 5.31296,2.60608 2.3868,0.2886 2.794,0.48589 2.794,1.35358 0,0.99565 -0.78528,1.36969 -2.87807,1.37083 -1.47684,0.001 -2.75858,-0.21455 -4.16407,-0.69965 -0.53841,-0.18584 -1.01001,-0.30682 -1.048,-0.26884 -0.0965,0.0965 0.0952,3.24395 0.2016,3.30973 0.12935,0.0799 1.99089,0.44619 2.93554,0.57755 1.26961,0.17655 4.61465,0.0595 5.588,-0.1956 z m -29.79891,-10.80654 c 2.82403,-3.70536 3.03437,-4.00726 3.54955,-5.09478 0.37118,-0.78356 0.40486,-0.96031 0.40486,-2.12466 0,-1.20746 -0.0218,-1.31064 -0.44222,-2.0955 -0.92324,-1.72343 -3.65739,-3.98117 -6.62424,-5.47001 -0.68609,-0.34429 -1.27191,-0.62599 -1.30183,-0.62599 -0.0299,0 -0.51862,0.60973 -1.08599,1.35494 l -1.03157,1.35494 0.8941,0.22706 c 1.87687,0.47664 4.41263,2.12148 5.22928,3.39201 0.32251,0.50176 0.37239,0.68661 0.32554,1.2064 -0.0353,0.39205 -0.14895,0.70748 -0.31444,0.87296 l -0.25911,0.25912 -1.58582,-1.19046 c -4.10416,-3.08097 -6.36773,-3.40375 -8.44758,-1.20462 -1.64816,1.74269 -1.82735,3.98535 -0.46564,5.82773 0.56013,0.75786 1.93428,1.78514 2.85383,2.13346 0.76672,0.29043 2.27211,0.35419 3.0283,0.12825 0.47923,-0.14318 0.50286,-0.20994 -0.327,0.92394 l -0.4104,0.56073 1.7439,1.34083 c 0.95914,0.73746 1.78543,1.32967 1.83621,1.31603 0.0508,-0.0137 1.1444,-1.40522 2.43027,-3.09238 z m -5.9201,-3.01913 c -1.22759,-0.43809 -2.00248,-1.53329 -1.74951,-2.47273 0.0805,-0.29889 0.31277,-0.65478 0.58121,-0.89047 0.85718,-0.75262 1.85621,-0.47678 3.83716,1.05943 l 1.04934,0.81376 -0.61825,0.63473 c -0.89588,0.91977 -2.037,1.23461 -3.09995,0.85528 z m -5.42899,-9.42467 c 2.94397,-2.43808 3.5526,-3.065 4.11348,-4.23714 0.34032,-0.71117 0.39502,-0.966204 0.39502,-1.841504 0,-0.85965 -0.0556,-1.1293 -0.36155,-1.75229 -0.52615,-1.0715 -1.58844,-2.16065 -2.58669,-2.65209 -0.69869,-0.34396 -1.00856,-0.41694 -1.96439,-0.46264 -0.94417,-0.0451 -1.12254,-0.0863 -1.06157,-0.24522 1.04291,-2.71779 -0.66371,-5.74482 -3.5888,-6.36546 -0.37015,-0.0785 -0.8845,-0.14343 -1.143,-0.1442 l -0.47,-0.001 0.4421,-0.34784 c 0.24315,-0.19132 0.57622,-0.46303 0.74015,-0.60381 l 0.29805,-0.25596 -1.43333,-1.73792 -1.43334,-1.73793 -0.57681,0.46907 c -0.31725,0.25799 -2.71995,2.23596 -5.33932,4.39548 -2.61938,2.15952 -4.78306,3.94257 -4.80818,3.96233 -0.0522,0.041 2.76249,3.47939 2.8483,3.47939 0.0309,0 1.39376,-1.10262 3.02857,-2.45027 3.64072,-3.00123 4.573,-3.49944 5.88649,-3.14575 0.75023,0.20201 1.55382,1.11437 1.55382,1.76413 0,0.90284 -0.37195,1.28055 -5.12241,5.20164 -2.27995,1.88191 -2.49088,2.0894 -2.34121,2.30308 0.43746,0.62457 2.58727,3.172504 2.68179,3.178424 0.0592,0.004 1.20222,-0.89803 2.54,-2.003874 3.1174,-2.57692 3.56767,-2.91718 4.33733,-3.27756 0.87322,-0.40888 2.01593,-0.41371 2.61345,-0.011 0.57093,0.38475 1.00605,1.05368 1.00605,1.54665 0,0.54027 -0.581,1.41966 -1.34335,2.033244 -1.83117,1.47385 -6.27665,5.17928 -6.27665,5.23177 0,0.0335 0.6342,0.82883 1.40934,1.7674 l 1.40935,1.70649 0.9719,-0.80454 c 0.53455,-0.4425 2.14348,-1.77479 3.57541,-2.96065 z M 422.69834,85.877786 c 0.51058,-0.17832 1.25353,-0.5102 1.651,-0.7375 1.53175,-0.87593 9.99583,-6.21405 10.03528,-6.32904 0.0229,-0.0667 -0.5116,-1.00693 -1.18772,-2.08947 -1.01576,-1.62633 -1.26567,-1.94873 -1.43859,-1.85584 -0.11511,0.0618 -2.45907,1.51779 -5.20882,3.23549 -5.98796,3.74051 -6.63842,4.01523 -7.97511,3.36815 -0.87973,-0.42587 -1.75038,-1.72641 -1.90347,-2.84333 -0.11096,-0.80953 0.39012,-1.79539 1.28166,-2.52164 0.36923,-0.30077 2.86511,-1.90944 5.54639,-3.57482 2.68129,-1.66538 4.9225,-3.0693 4.98047,-3.11983 0.0899,-0.0783 -0.35835,-0.84886 -2.15501,-3.70467 l -0.29618,-0.47079 -4.9604,3.10288 c -2.72822,1.70659 -5.29615,3.36124 -5.70652,3.67701 -1.01891,0.78403 -1.70447,1.60814 -2.25462,2.71025 -1.0438,2.09103 -0.60681,4.68052 1.27611,7.56193 1.30624,1.99891 2.63279,3.16389 4.24673,3.72946 1.12869,0.39553 2.69271,0.34239 4.0688,-0.13824 z m -10.32995,-14.87717 c 1.09391,-0.23172 2.3684,-0.83741 3.64133,-1.7305 2.59823,-1.82293 8.9922,-6.53571 8.9953,-6.63013 0.003,-0.0836 -0.98814,-1.48802 -2.72416,-3.86106 -0.0125,-0.0171 -2.13285,1.51043 -4.71181,3.39456 -5.05796,3.69525 -6.02981,4.29987 -7.08691,4.40897 -0.8762,0.0904 -1.41301,-0.16331 -2.22499,-1.05175 -1.36424,-1.4927 -1.33886,-2.93674 0.0763,-4.34003 0.33528,-0.33246 2.72414,-2.14049 5.30859,-4.01783 2.58445,-1.87734 4.73671,-3.44854 4.7828,-3.49156 0.11632,-0.10858 -2.68972,-3.89727 -2.85121,-3.84969 -0.0719,0.0212 -2.31193,1.63204 -4.9778,3.57967 -3.20896,2.34439 -5.10624,3.81822 -5.61401,4.36103 -2.6199,2.80069 -2.58872,5.77796 0.0998,9.53103 1.74085,2.43013 3.87587,3.8183 5.95691,3.87312 0.24447,0.006 0.84291,-0.0727 1.32985,-0.17583 z M 401.5779,58.399786 c 0.71963,-0.37033 1.79554,-1.55604 2.18617,-2.40928 0.82037,-1.79192 0.25507,-3.19826 -2.38905,-5.94343 -1.19892,-1.24474 -1.76649,-2.00305 -1.76649,-2.36015 0,-0.12605 0.13556,-0.38679 0.30124,-0.5794 0.39464,-0.4588 0.9772,-0.44717 1.877,0.0375 0.92548,0.49847 2.57553,2.17046 3.45951,3.50551 0.40475,0.61129 0.77635,1.08644 0.82576,1.0559 0.0494,-0.0305 0.52789,-0.6243 1.06327,-1.31946 l 0.97342,-1.26393 -0.80162,-0.93497 c -1.86419,-2.17434 -4.00799,-3.90937 -5.79358,-4.6889 -0.55461,-0.24213 -0.92087,-0.30548 -1.778,-0.30751 -0.94909,-0.002 -1.1506,0.0392 -1.66805,0.34342 -0.7305,0.42944 -1.64737,1.4347 -2.03062,2.22639 -0.34791,0.71867 -0.45339,1.85302 -0.2349,2.52592 0.2648,0.81551 1.15893,2.07157 2.42791,3.4107 0.66191,0.69851 1.30004,1.41131 1.41806,1.58401 0.30754,0.45 0.26948,0.97617 -0.0971,1.34277 -0.45342,0.45342 -1.20342,0.42242 -2.10127,-0.0869 -0.99994,-0.56718 -2.98687,-2.62903 -3.683,-3.82187 -0.31432,-0.53861 -0.60579,-0.98092 -0.64771,-0.98291 -0.0935,-0.004 -2.01929,2.4838 -2.01929,2.60906 0,0.18053 1.39325,1.79672 2.42872,2.81735 1.69238,1.66814 3.22908,2.72646 4.76593,3.28228 1.0847,0.3923 2.47419,0.37448 3.28372,-0.0421 z m -11.3502,-6.85543 c 1.43979,-0.45902 2.5897,-2.09926 2.74135,-3.91029 0.0924,-1.10407 -0.1168,-1.70972 -0.87874,-2.54342 -0.75773,-0.82908 -1.51515,-1.36257 -3.49534,-2.46196 -1.35783,-0.75386 -2.06744,-1.34744 -2.06744,-1.72938 0,-0.36932 0.30215,-0.81086 0.65484,-0.95695 1.03372,-0.42818 3.52467,0.62785 5.77956,2.45023 0.4306,0.348 0.82121,0.641 0.86803,0.65111 0.0796,0.0172 1.20657,-2.78503 1.20657,-3.00019 0,-0.0543 -0.47149,-0.40484 -1.04775,-0.7791 -3.23966,-2.104 -6.68885,-3.13308 -8.6198,-2.57174 -1.34693,0.39157 -2.4222,1.72233 -2.77658,3.43632 -0.42544,2.05775 0.56901,3.39725 3.87467,5.21908 1.85964,1.0249 2.27924,1.42393 2.17471,2.06806 -0.0912,0.56184 -0.26614,0.75815 -0.80942,0.90815 -1.25491,0.3465 -4.2057,-0.98279 -6.16132,-2.77559 -0.71606,-0.65645 -0.731,-0.66302 -0.84258,-0.37095 -0.0625,0.16353 -0.32023,0.83171 -0.57277,1.48483 -0.25254,0.65312 -0.45916,1.25603 -0.45916,1.33981 0,0.0838 0.44291,0.44038 0.98425,0.79246 3.72219,2.42089 7.25371,3.44873 9.44692,2.74952 z m -10.02609,-9.52822 c 0.60576,-3.75343 1.08175,-6.84407 1.05774,-6.86807 -0.0594,-0.0594 -4.31003,-0.75838 -4.36043,-0.71702 -0.0584,0.0479 -2.17866,13.152 -2.18068,13.4773 -0.002,0.29491 -0.19732,0.24251 2.72879,0.73148 0.5588,0.0934 1.15937,0.17675 1.3346,0.18526 l 0.31859,0.0155 z m -10.56508,2.78119 c 0,-1.66499 0.0378,-5.00827 0.0841,-7.4295 l 0.0841,-4.40226 h 3.01029 3.0103 l 0.0916,-1.728911 c 0.0504,-0.950902 0.0438,-1.772521 -0.0146,-1.825817 -0.0584,-0.0533 -3.91344,-0.13568 -8.56668,-0.183076 l -8.46045,-0.08617 -0.0631,1.753242 c -0.0347,0.964283 -0.0389,1.796102 -0.009,1.848482 0.0296,0.0524 1.41976,0.0952 3.08925,0.0952 h 3.03543 l -0.079,7.493 -0.079,7.493 h 2.4336 2.43359 z m 11.99783,-11.73651 c 0.14138,-0.62473 0.54712,-3.209341 0.50996,-3.248572 -0.0671,-0.07086 -4.31277,-0.751171 -4.37117,-0.700424 -0.0592,0.05146 -0.63915,3.518916 -0.59584,3.562626 0.0593,0.0599 3.60389,0.64613 3.98205,0.6586 0.32735,0.0108 0.42341,-0.0443 0.475,-0.27223 z m 80.54931,88.749234 c -2.11552,-0.75472 -2.50349,-2.73257 -1.09041,-5.55873 1.10163,-2.20326 2.93076,-2.80087 4.66434,-1.52394 0.96761,0.71273 1.16165,2.14211 0.53514,3.9421 -0.90269,2.59345 -2.41111,3.74634 -4.10907,3.14057 z"
         style="fill:#a20808;stroke-width:0.127" />
    </g>
    <g
       transform="translate(261.56216,-3.7823817)"
       id="g1653">
      <path
         id="path1719"
         d="m 103.82251,-49.558698 c -4.5567,-0.3385 -7.79809,-1.1557 -11.049,-2.78565 -2.11145,-1.05864 -3.727,-2.21027 -5.34003,-3.8066 -2.00627,-1.98551 -3.33516,-3.95148 -4.32994,-6.40576 -3.06656,-7.56566 -1.58929,-16.69536 4.07994,-25.2145 1.15609,-1.73727 2.9228,-4.0099 3.17703,-4.08682 0.0698,-0.0211 1.98438,2.77427 4.2545,6.21201 8.54899,12.94605 12.34146,18.10391 17.90521,24.35156 1.98464,2.2286 5.39438,5.61517 7.34512,7.29524 l 1.31082,1.12893 -1.05682,0.42685 c -3.21769,1.29959 -7.28572,2.31334 -10.83583,2.70028 -1.32693,0.14463 -4.53736,0.25308 -5.461,0.18446 z"
         style="fill:#d0d0d0;stroke-width:0.127" />
      <path
         sodipodi:nodetypes="csscccscssccc"
         id="path1681"
         d="m 30.067252,-70.301108 c -2.5699,-1.03157 -5.80496,-2.96974 -7.92006,-4.74499 -4.00265,-3.35954 -6.52344,-7.44359 -7.50325,-12.1564 -0.31082,-1.49505 -0.30844,-4.95452 0.005,-6.52449 1.33145,-6.679632 6.10407,-12.381812 13.35506,-15.956212 l 4.60385,-1.85902 c 11.435968,-3.63333 24.543518,-1.48371 32.977998,5.40835 0.49613,0.4054 1.543,1.40381 2.32637,2.21869 4.90664,5.103942 6.75892,11.533502 5.15502,17.893852 -2.36961,9.3968 -12.13084,16.57367 -24.67964,18.14553 -1.7251,0.21608 -7.15631,0.21433 -8.763,-0.003 -2.779068,-0.37562 -5.531298,-0.99298 -7.479768,-1.67781 z"
         style="fill:#d0d0d0;stroke-width:0.127" />
      <path
         id="path1663"
         d="m 71.24701,-3.7676551 c -8.54211,-0.81408 -15.79082,-3.90183 -20.75179,-8.8397199 -2.86615,-2.85282 -4.55701,-5.74528 -5.48368,-9.38062 -0.32104,-1.25945 -0.35684,-1.61582 -0.36357,-3.6195 -0.008,-2.40012 0.14327,-3.44818 0.77933,-5.3975 1.16648,-3.574833 3.58999,-6.961593 6.94106,-9.699853 4.09076,-3.34268 10.21881,-5.92272 16.17526,-6.81012 7.73247,-1.15199 15.74388,-0.0393 22.32489,3.10064 3.12593,1.49145 5.59191,3.22096 7.874,5.52241 3.0401,3.06588 4.80503,6.262333 5.54415,10.040953 0.31721,1.62163 0.33841,4.34458 0.0465,5.97397 -1.5951,8.90411 -10.35419,16.2059199 -22.22766,18.5295699 -2.90021,0.56758 -8.08288,0.8443 -10.8585,0.57977 z"
         style="fill:#d0d0d0;stroke-width:0.127" />
    </g>
  </g>
</svg>
