<?xml version="1.0" encoding="UTF-8" standalone="no"?>
<!-- Created with Inkscape (http://www.inkscape.org/) -->

<svg
   xmlns:dc="http://purl.org/dc/elements/1.1/"
   xmlns:cc="http://creativecommons.org/ns#"
   xmlns:rdf="http://www.w3.org/1999/02/22-rdf-syntax-ns#"
   xmlns:svg="http://www.w3.org/2000/svg"
   xmlns="http://www.w3.org/2000/svg"
   xmlns:sodipodi="http://sodipodi.sourceforge.net/DTD/sodipodi-0.dtd"
   xmlns:inkscape="http://www.inkscape.org/namespaces/inkscape"
   width="63.500011mm"
   height="63.499992mm"
   viewBox="0 0 63.500011 63.499992"
   version="1.1"
   id="svg8"
   inkscape:version="0.92.3 (2405546, 2018-03-11)"
   sodipodi:docname="markershapes.svg"
   inkscape:export-filename="/home/fredrik/Development/tmp/TissUUmaps/misc/markershapes.png"
   inkscape:export-xdpi="409.60001"
   inkscape:export-ydpi="409.60001">
  <defs
     id="defs2" />
  <sodipodi:namedview
     id="base"
     pagecolor="#ffffff"
     bordercolor="#666666"
     borderopacity="1.0"
     inkscape:pageopacity="0.0"
     inkscape:pageshadow="2"
     inkscape:zoom="2.8"
     inkscape:cx="80.453621"
     inkscape:cy="135.45659"
     inkscape:document-units="mm"
     inkscape:current-layer="g990"
     showgrid="true"
     inkscape:window-width="1920"
     inkscape:window-height="1056"
     inkscape:window-x="0"
     inkscape:window-y="24"
     inkscape:window-maximized="1">
    <inkscape:grid
       type="xygrid"
       id="grid3713"
       originx="-15.874991"
       originy="-190.50001" />
  </sodipodi:namedview>
  <metadata
     id="metadata5">
    <rdf:RDF>
      <cc:Work
         rdf:about="">
        <dc:format>image/svg+xml</dc:format>
        <dc:type
           rdf:resource="http://purl.org/dc/dcmitype/StillImage" />
        <dc:title></dc:title>
      </cc:Work>
    </rdf:RDF>
  </metadata>
  <g
     inkscape:label="Layer 1"
     inkscape:groupmode="layer"
     id="layer1"
     transform="translate(-15.874991,-43)">
    <rect
       style="fill:none;stroke:none;stroke-width:0.26458332"
       y="43"
       x="47.625004"
       height="15.875001"
       width="15.875"
       id="rect4614"
       inkscape:export-xdpi="204.8"
       inkscape:export-ydpi="204.8" />
    <rect
       id="rect4616"
       width="15.875"
       height="15.875001"
       x="31.750002"
       y="43"
       style="fill:none;stroke:none;stroke-width:0.26458332"
       inkscape:export-xdpi="204.8"
       inkscape:export-ydpi="204.8" />
    <rect
       style="fill:none;stroke:none;stroke-width:0.26458332"
       y="58.875004"
       x="15.874999"
       height="15.875001"
       width="15.875"
       id="rect4618"
       inkscape:export-xdpi="204.8"
       inkscape:export-ydpi="204.8" />
    <rect
       id="rect4620"
       width="15.875"
       height="15.875001"
       x="63.500004"
       y="43"
       style="fill:none;stroke:none;stroke-width:0.26458332"
       inkscape:export-xdpi="204.8"
       inkscape:export-ydpi="204.8" />
    <rect
       id="rect4622"
       width="15.875"
       height="15.875001"
       x="15.874999"
       y="43"
       style="fill:none;stroke:none;stroke-width:0.26458332"
       inkscape:export-xdpi="204.8"
       inkscape:export-ydpi="204.8" />
    <rect
       style="fill:none;stroke:none;stroke-width:0.26458332"
       y="58.875004"
       x="31.74999"
       height="15.875001"
       width="15.875"
       id="rect4624"
       inkscape:export-xdpi="204.8"
       inkscape:export-ydpi="204.8" />
    <rect
       y="46.968754"
       x="51.593754"
       height="7.9374971"
       width="7.9374971"
       id="rect4626"
       style="fill:#ffffff;stroke:#808080;stroke-width:0.26499999;stroke-miterlimit:4;stroke-dasharray:none"
       inkscape:export-xdpi="204.8"
       inkscape:export-ydpi="204.8" />
    <path
       d="m 39.687496,56.22917 -5.291666,-5.291666 5.291666,-5.291667 5.291667,5.291667 z"
       inkscape:randomized="0"
       inkscape:rounded="0"
       inkscape:flatsided="true"
       sodipodi:arg2="2.3561945"
       sodipodi:arg1="1.5707963"
       sodipodi:r2="3.7417734"
       sodipodi:r1="5.2916665"
       sodipodi:cy="50.937504"
       sodipodi:cx="39.687497"
       sodipodi:sides="4"
       id="path4628"
       style="fill:#ffffff;stroke:#808080;stroke-width:0.26458332"
       sodipodi:type="star"
       inkscape:export-xdpi="204.8"
       inkscape:export-ydpi="204.8" />
    <path
       transform="scale(1,-1)"
       inkscape:transform-center-y="-0.50530865"
       d="m 23.812496,-62.059385 -1.555181,-3.151142 -3.477493,-0.505309 2.516337,-2.452823 -0.594026,-3.46344 3.110363,1.635214 3.110364,-1.635215 -0.594027,3.463441 2.516337,2.452822 -3.477492,0.50531 z"
       inkscape:randomized="0"
       inkscape:rounded="0"
       inkscape:flatsided="false"
       sodipodi:arg2="2.1991148"
       sodipodi:arg1="1.5707963"
       sodipodi:r2="2.6458333"
       sodipodi:r1="5.2916665"
       sodipodi:cy="-67.351049"
       sodipodi:cx="23.812496"
       sodipodi:sides="5"
       id="path4630"
       style="fill:#ffffff;stroke:#808080;stroke-width:0.26458332"
       sodipodi:type="star"
       inkscape:export-xdpi="204.8"
       inkscape:export-ydpi="204.8" />
    <path
       inkscape:connector-curvature="0"
       id="path4632"
       d="m 22.325765,46.326191 h 3.0868 v 3.086807 h 3.086807 v 3.086806 h -3.086807 v 3.086805 h -3.0868 v -3.086805 h -3.086783 v -3.086806 h 3.086783 z"
       style="fill:#ffffff;stroke:#808080;stroke-width:0.26499999;stroke-linecap:butt;stroke-linejoin:miter;stroke-miterlimit:4;stroke-dasharray:none;stroke-opacity:1"
       inkscape:export-xdpi="204.8"
       inkscape:export-ydpi="204.8" />
    <path
       inkscape:connector-curvature="0"
       id="path4634"
       d="m 38.067086,61.875168 v 3.860992 l -3.467697,1.956389 1.65435,2.800077 3.453487,-1.94818 3.453487,1.94818 1.65436,-2.800077 -3.439267,-1.9406 v -3.876781 z"
       style="fill:#ffffff;stroke:#808080;stroke-width:0.24762221;stroke-linecap:butt;stroke-linejoin:miter;stroke-miterlimit:4;stroke-dasharray:none;stroke-opacity:1"
       inkscape:export-xdpi="204.8"
       inkscape:export-ydpi="204.8" />
    <path
       inkscape:transform-center-y="-1.4552087"
       inkscape:transform-center-x="1.1e-06"
       d="m 71.437508,46.439585 5.040989,8.73125 -10.081979,-10e-7 z"
       inkscape:randomized="0"
       inkscape:rounded="0"
       inkscape:flatsided="true"
       sodipodi:arg2="-0.52359878"
       sodipodi:arg1="-1.5707963"
       sodipodi:r2="2.9104166"
       sodipodi:r1="5.8208332"
       sodipodi:cy="52.260419"
       sodipodi:cx="71.437508"
       sodipodi:sides="3"
       id="path4640"
       style="fill:#ffffff;stroke:#808080;stroke-width:0.26499999;stroke-miterlimit:4;stroke-dasharray:none"
       sodipodi:type="star"
       inkscape:export-xdpi="204.8"
       inkscape:export-ydpi="204.8" />
    <rect
       inkscape:export-ydpi="204.8"
       inkscape:export-xdpi="204.8"
       id="rect845"
       width="15.875"
       height="15.875001"
       x="47.624992"
       y="58.875004"
       style="fill:none;stroke:none;stroke-width:0.26458332" />
    <circle
       inkscape:export-ydpi="204.8"
       inkscape:export-xdpi="204.8"
       style="fill:#ffffff;stroke:#808080;stroke-width:0.26499999;stroke-miterlimit:4;stroke-dasharray:none"
       id="circle847"
       cx="55.562492"
       cy="66.812508"
       r="4.5541801" />
    <rect
       style="fill:none;stroke:none;stroke-width:0.26458332"
       y="58.875004"
       x="63.499996"
       height="15.875001"
       width="15.875"
       id="rect849"
       inkscape:export-xdpi="204.8"
       inkscape:export-ydpi="204.8" />
    <circle
       r="4.5541801"
       cy="98.562492"
       cx="71.437492"
       id="circle851"
       style="fill:#ffffff;stroke:none;stroke-width:0.26499999;stroke-miterlimit:4;stroke-dasharray:none"
       inkscape:export-xdpi="204.8"
       inkscape:export-ydpi="204.8" />
    <rect
       inkscape:export-ydpi="204.8"
       inkscape:export-xdpi="204.8"
       id="rect861"
       width="15.875"
       height="15.875001"
       x="15.874991"
       y="74.75"
       style="fill:none;stroke:none;stroke-width:0.26458332" />
    <rect
       style="fill:none;stroke:none;stroke-width:0.26458332"
       y="74.75"
       x="31.74999"
       height="15.875001"
       width="15.875"
       id="rect865"
       inkscape:export-xdpi="204.8"
       inkscape:export-ydpi="204.8" />
    <rect
       style="fill:none;stroke:none;stroke-width:0.26458332"
       y="74.75"
       x="47.624992"
       height="15.875001"
       width="15.875"
       id="rect869"
       inkscape:export-xdpi="204.8"
       inkscape:export-ydpi="204.8" />
    <rect
       inkscape:export-ydpi="204.8"
       inkscape:export-xdpi="204.8"
       id="rect873"
       width="15.875"
       height="15.875001"
       x="63.499996"
       y="74.75"
       style="fill:none;stroke:none;stroke-width:0.26458332" />
    <rect
       style="fill:none;stroke:none;stroke-width:0.26458332"
       y="90.624992"
       x="15.874991"
       height="15.875001"
       width="15.875"
       id="rect885"
       inkscape:export-xdpi="204.8"
       inkscape:export-ydpi="204.8" />
    <rect
       inkscape:export-ydpi="204.8"
       inkscape:export-xdpi="204.8"
       id="rect889"
       width="15.875"
       height="15.875001"
       x="31.74999"
       y="90.624992"
       style="fill:none;stroke:none;stroke-width:0.26458332" />
    <rect
       inkscape:export-ydpi="204.8"
       inkscape:export-xdpi="204.8"
       id="rect893"
       width="15.875"
       height="15.875001"
       x="47.624992"
       y="90.624992"
       style="fill:none;stroke:none;stroke-width:0.26458332" />
    <rect
       style="fill:none;stroke:none;stroke-width:0.26458332"
       y="90.624992"
       x="63.499996"
       height="15.875001"
       width="15.875"
       id="rect897"
       inkscape:export-xdpi="204.8"
       inkscape:export-ydpi="204.8" />
    <path
       style="fill:#ffffff;stroke:#808080;stroke-width:0.26499999;stroke-miterlimit:4;stroke-dasharray:none"
       d="m 71.437491,78.133257 a 4.55418,4.55418 0 0 0 -4.554244,4.554244 4.55418,4.55418 0 0 0 4.554244,4.554243 4.55418,4.55418 0 0 0 4.554244,-4.554243 4.55418,4.55418 0 0 0 -4.554244,-4.554244 z m 0.02015,2.473234 a 2.1175001,2.1175001 0 0 1 2.117702,2.1177 2.1175001,2.1175001 0 0 1 -2.117702,2.117183 2.1175001,2.1175001 0 0 1 -2.117698,-2.117183 2.1175001,2.1175001 0 0 1 2.117698,-2.1177 z"
       id="circle850"
       inkscape:connector-curvature="0" />
    <rect
       inkscape:export-ydpi="204.8"
       inkscape:export-xdpi="204.8"
       style="fill:#ffffff;stroke:#808080;stroke-width:0.26499999;stroke-miterlimit:4;stroke-dasharray:none"
       id="rect852"
       width="8.7349997"
       height="3.2349999"
       x="67.034439"
       y="65.214943" />
    <path
       inkscape:export-ydpi="204.8"
       inkscape:export-xdpi="204.8"
       style="fill:#ffffff;stroke:#808080;stroke-width:0.26499999;stroke-linecap:butt;stroke-linejoin:miter;stroke-miterlimit:4;stroke-dasharray:none;stroke-opacity:1"
       d="m 26.051871,94.215993 2.182698,2.182698 -2.182703,2.182702 2.182703,2.182697 -2.182704,2.18271 -2.182702,-2.1827 -2.182697,2.18269 -2.182698,-2.18269 2.182698,-2.182701 -2.182686,-2.182685 2.182704,-2.182704 2.182685,2.182686 z"
       id="path858"
       inkscape:connector-curvature="0" />
    <rect
       y="-25.394432"
       x="78.273117"
       height="3.2349999"
       width="8.7349997"
       id="rect860"
       style="fill:#ffffff;stroke:#808080;stroke-width:0.26499999;stroke-miterlimit:4;stroke-dasharray:none"
       inkscape:export-xdpi="204.8"
       inkscape:export-ydpi="204.8"
       transform="rotate(90)" />
    <path
       inkscape:export-ydpi="204.8"
       inkscape:export-xdpi="204.8"
       sodipodi:type="star"
       style="fill:#ffffff;stroke:#808080;stroke-width:0.26499999;stroke-miterlimit:4;stroke-dasharray:none"
       id="path862"
       sodipodi:sides="3"
       sodipodi:cx="55.562508"
       sodipodi:cy="84.010414"
       sodipodi:r1="5.8208332"
       sodipodi:r2="2.9104166"
       sodipodi:arg1="-1.5707963"
       sodipodi:arg2="-0.52359878"
       inkscape:flatsided="true"
       inkscape:rounded="0"
       inkscape:randomized="0"
       d="m 55.562508,78.189581 5.040989,8.73125 -10.081979,0 z"
       inkscape:transform-center-y="1.455207"
       transform="rotate(60,57.853869,82.6875)" />
    <path
       style="fill:#ffffff;stroke:#808080;stroke-width:0.26499999;stroke-miterlimit:4;stroke-dasharray:none"
       d="m 38.657743,93.791226 -1.596776,1.596777 3.189186,3.189186 -3.193553,3.193551 1.596778,1.59678 3.193552,-3.19355 0.0044,0.004 1.596776,-1.59678 z"
       id="rect868"
       inkscape:connector-curvature="0" />
    <path
       style="fill:#ffffff;stroke:#808080;stroke-width:1.00157475;stroke-miterlimit:4;stroke-dasharray:none"
       d="M 88.107422 131.9668 L 82.072266 138.00195 L 89.208984 145.13672 L 73.642578 145.13672 L 73.642578 154.90234 L 89.279297 154.90234 L 82.056641 162.125 L 88.091797 168.16016 L 100.16211 156.08984 L 100.17773 156.10742 L 106.21289 150.07227 L 88.107422 131.9668 z "
       transform="matrix(0.26458333,0,0,0.26458333,15.874991,43)"
       id="path874" />
    <g
       id="g990"
       transform="matrix(0.01278854,0,0,0.01278718,50.87549,93.876)"
       style="stroke-width:20.69018936">
      <circle
         id="circle956"
         r="366.5"
         cx="366.5"
         cy="366.5"
         style="stroke-width:20.69018936;fill:#808080;fill-opacity:1" />
      <circle
         id="circle958"
         r="336.5"
         cx="366.5"
         cy="366.5"
         style="fill:#ffffff;stroke-width:20.69018936" />
      <path
         id="path960"
         d="M 325,665 C 204,644 131,550 113,432 v -8 l -25,-1 -1,-18 h 481 c 6,13 10,27 13,41 13,94 -38,146 -114,193 -45,23 -93,29 -142,26 z"
         inkscape:connector-curvature="0"
         style="stroke-width:20.69018936;fill:#808080;fill-opacity:1" />
      <path
         id="path962"
         d="m 372,647 c 52,-6 98,-28 138,-62 28,-25 46,-56 51,-87 4,-20 1,-57 -5,-70 l -423,-1 c -2,56 39,118 74,157 31,34 72,54 116,63 11,2 38,2 49,0 z"
         inkscape:connector-curvature="0"
         style="fill:#ffffff;stroke-width:20.69018936" />
      <path
         id="path964"
         d="m 76,342 c -13,-26 -13,-57 -9,-85 6,-27 18,-52 35,-68 21,-20 50,-23 77,-18 15,4 28,12 39,23 18,17 30,40 36,67 4,20 4,41 0,60 l -6,21 z"
         inkscape:connector-curvature="0"
         style="stroke-width:20.69018936;fill:#808080;fill-opacity:1" />
      <path
         id="path966"
         d="m 234,323 c 5,-6 6,-40 2,-58 -3,-16 -4,-16 -10,-10 -14,14 -38,14 -52,0 -15,-18 -12,-41 6,-55 3,-3 5,-5 5,-6 -1,-4 -22,-8 -34,-7 -42,4 -57.6,40 -66.2,77 -3,17 -1,53 4,59 z"
         inkscape:connector-curvature="0"
         style="fill:#ffffff;stroke-width:20.69018936" />
      <path
         id="path968"
         d="m 378,343 c -2,-3 -6,-20 -7,-29 -5,-28 -1,-57 11,-83 15,-30 41,-52 72,-60 29,-7 57,0 82,15 26,17 45,49 50,82 2,12 2,33 0,45 -1,10 -5,26 -8,30 z"
         inkscape:connector-curvature="0"
         style="stroke-width:20.69018936;fill:#808080;fill-opacity:1" />
      <path
         id="path970"
         d="m 565,324 c 4,-5 5,-34 4,-50 -2,-14 -6,-24 -8,-24 -1,0 -3,2 -6,5 -17,17 -47,13 -58,-9 -7,-16 -4,-31 8,-43 4,-4 7,-8 7,-9 0,0 -4,-2 -8,-3 -51,-17 -105,20 -115,80 -3,15 0,43 3,53 z"
         inkscape:connector-curvature="0"
         style="fill:#ffffff;stroke-width:20.69018936" />
      <path
         id="path972"
         d="m 504,590 c 0,0 -46,40 -105,53 -66,15 -114,-7 -114,-7 0,0 14,-76 93,-95 76,-18 126,49 126,49 z"
         inkscape:connector-curvature="0"
         style="fill:#ffffff;stroke-width:20.69018936;stroke:#808080;stroke-opacity:1" />
    </g>
  </g>
</svg>
